<svg width="16" height="21" viewBox="0 0 16 21" fill="none" xmlns="http://www.w3.org/2000/svg">
<path d="M1.66667 20.1667C1.11438 20.1667 0.659649 19.7169 0.734723 19.1698C0.951057 17.5931 1.67644 16.1194 2.81455 14.9813C4.18982 13.606 6.05508 12.8334 8 12.8334C9.94492 12.8334 11.8102 13.606 13.1854 14.9813C14.3236 16.1194 15.0489 17.5931 15.2653 19.1698C15.3404 19.7169 14.8856 20.1667 14.3333 20.1667H1.66667ZM8 11.9167C4.96125 11.9167 2.5 9.4555 2.5 6.41675C2.5 3.378 4.96125 0.916748 8 0.916748C11.0387 0.916748 13.5 3.378 13.5 6.41675C13.5 9.4555 11.0387 11.9167 8 11.9167Z" fill="#2C3E50"/>
</svg>
