<svg width="25" height="25" viewBox="0 0 25 25" fill="none" xmlns="http://www.w3.org/2000/svg">
<path d="M3.66668 5.69012C3.66668 5.55749 3.61398 5.43029 3.52018 5.33652L0.590503 2.40774C0.199876 2.01724 0.199828 1.38399 0.590395 0.993422L0.826796 0.757021C1.21736 0.366454 1.85061 0.366502 2.24112 0.75713L5.16989 3.6868C5.26366 3.78061 5.39086 3.8333 5.5235 3.8333H23.0987C23.2805 3.83329 23.4599 3.87579 23.6224 3.9574C23.7849 4.03901 23.926 4.15748 24.0346 4.30335C24.1432 4.44922 24.2162 4.61845 24.2477 4.79754C24.2793 4.97663 24.2685 5.16061 24.2163 5.33481L21.4163 14.6681C21.3443 14.9086 21.1967 15.1194 20.9953 15.2692C20.794 15.4191 20.5497 15.5 20.2987 15.5H7.00001C6.44773 15.5 6.00001 15.9477 6.00001 16.5V16.8333C6.00001 17.3856 6.44773 17.8333 7.00001 17.8333H17.8333C18.3856 17.8333 18.8333 18.281 18.8333 18.8333V19.1666C18.8333 19.7189 18.3856 20.1666 17.8333 20.1666H4.83335C4.52393 20.1666 4.22718 20.0437 4.00839 19.8249C3.7896 19.6061 3.66668 19.3094 3.66668 19V5.69012ZM5.41668 24.8333C4.95255 24.8333 4.50743 24.6489 4.17924 24.3207C3.85105 23.9926 3.66668 23.5474 3.66668 23.0833C3.66668 22.6192 3.85105 22.1741 4.17924 21.8459C4.50743 21.5177 4.95255 21.3333 5.41668 21.3333C5.88081 21.3333 6.32593 21.5177 6.65412 21.8459C6.9823 22.1741 7.16668 22.6192 7.16668 23.0833C7.16668 23.5474 6.9823 23.9926 6.65412 24.3207C6.32593 24.6489 5.88081 24.8333 5.41668 24.8333ZM19.4167 24.8333C18.9526 24.8333 18.5074 24.6489 18.1792 24.3207C17.8511 23.9926 17.6667 23.5474 17.6667 23.0833C17.6667 22.6192 17.8511 22.1741 18.1792 21.8459C18.5074 21.5177 18.9526 21.3333 19.4167 21.3333C19.8808 21.3333 20.3259 21.5177 20.6541 21.8459C20.9823 22.1741 21.1667 22.6192 21.1667 23.0833C21.1667 23.5474 20.9823 23.9926 20.6541 24.3207C20.3259 24.6489 19.8808 24.8333 19.4167 24.8333Z" fill="#FFFFFF"/>
</svg>
