<svg width="24" height="24" viewBox="0 0 24 24" fill="none" xmlns="http://www.w3.org/2000/svg">
<path d="M12 23.6668C5.55648 23.6668 0.333313 18.4437 0.333313 12.0002C0.333313 5.55666 5.55648 0.333496 12 0.333496C18.4435 0.333496 23.6666 5.55666 23.6666 12.0002C23.6666 18.4437 18.4435 23.6668 12 23.6668ZM14.1666 12.0002C13.6144 12.0002 13.1666 11.5524 13.1666 11.0002V7.16683C13.1666 6.61455 12.7189 6.16683 12.1666 6.16683H11.8333C11.281 6.16683 10.8333 6.61455 10.8333 7.16683V13.3335C10.8333 13.8858 11.281 14.3335 11.8333 14.3335H16.8333C17.3856 14.3335 17.8333 13.8858 17.8333 13.3335V13.0002C17.8333 12.4479 17.3856 12.0002 16.8333 12.0002H14.1666Z" fill="white"/>
</svg>
