<svg width="18" height="21" viewBox="0 0 18 21" fill="none" xmlns="http://www.w3.org/2000/svg">
<path d="M14.8337 14.9171L9 20.7508L3.16633 14.9171C2.01256 13.7633 1.22683 12.2933 0.908514 10.693C0.590194 9.09261 0.753577 7.43382 1.378 5.92633C2.00243 4.41885 3.05985 3.13038 4.41656 2.22386C5.77326 1.31735 7.36831 0.833496 9 0.833496C10.6317 0.833496 12.2267 1.31735 13.5834 2.22386C14.9401 3.13038 15.9976 4.41885 16.622 5.92633C17.2464 7.43382 17.4098 9.09261 17.0915 10.693C16.7732 12.2933 15.9874 13.7633 14.8337 14.9171ZM9 10.9168C9.48623 10.9168 9.95255 10.7236 10.2964 10.3798C10.6402 10.036 10.8333 9.56965 10.8333 9.08342C10.8333 8.59719 10.6402 8.13088 10.2964 7.78706C9.95255 7.44325 9.48623 7.25009 9 7.25009C8.51377 7.25009 8.04745 7.44325 7.70364 7.78706C7.35982 8.13088 7.16667 8.59719 7.16667 9.08342C7.16667 9.56965 7.35982 10.036 7.70364 10.3798C8.04745 10.7236 8.51377 10.9168 9 10.9168Z" fill="#2C3E50"/>
</svg>
