<svg width="24" height="20" viewBox="0 0 24 20" fill="none" xmlns="http://www.w3.org/2000/svg">
<path d="M10 14.1667C10 14.6269 10.3731 15 10.8333 15H13.1667C13.6269 15 14 14.6269 14 14.1667V14.1667C14 13.7064 13.6269 13.3333 13.1667 13.3333H10.8333C10.3731 13.3333 10 13.7064 10 14.1667V14.1667ZM3.83333 5C3.3731 5 3 5.3731 3 5.83333V5.83333C3 6.29357 3.3731 6.66667 3.83333 6.66667H20.1667C20.6269 6.66667 21 6.29357 21 5.83333V5.83333C21 5.3731 20.6269 5 20.1667 5H3.83333ZM6 10C6 10.4602 6.3731 10.8333 6.83333 10.8333H17.1667C17.6269 10.8333 18 10.4602 18 10V10C18 9.53976 17.6269 9.16667 17.1667 9.16667H6.83333C6.3731 9.16667 6 9.53976 6 10V10Z" fill="#2C3E50"/>
</svg>
