<svg width="72" height="95" viewBox="0 0 72 95" fill="none" xmlns="http://www.w3.org/2000/svg">
<path d="M0.827591 81.2309C2.5518 80.7912 4.26526 80.3199 5.93211 79.7023C7.5291 79.284 9.06373 78.6545 10.4957 77.8299C12.5379 77.205 14.5153 76.3835 16.4004 75.3769C16.8018 75.1803 17.1551 74.8974 17.4353 74.5476C17.7153 74.1979 17.9153 73.7906 18.0209 73.3545C18.2719 72.5436 18.4711 71.7198 18.6704 70.8956C18.8853 70.007 19.1004 69.1174 19.3807 68.2429C19.5483 67.4566 20.1444 67.4566 20.8336 67.4566C21.0626 67.4566 21.2916 67.5394 21.5213 67.6221C21.9828 67.7889 22.4471 67.9567 22.9197 67.4566C23.4678 65.6651 23.5848 63.7685 23.2609 61.9226C22.9371 60.0771 22.1817 58.335 21.0571 56.8402C21.0449 56.7584 21.0417 56.6756 21.0473 56.5933C21.0494 56.5632 21.0526 56.533 21.0571 56.5028C20.9009 55.4446 20.5128 54.4338 19.9209 53.5447C19.8022 53.163 19.6761 52.7854 19.5502 52.4083C19.2806 51.6015 19.0123 50.7978 18.8219 49.9681C18.7765 49.6106 18.6294 49.2737 18.398 48.9976C18.1667 48.722 17.8611 48.5195 17.518 48.4143C17.099 48.2717 16.73 48.0098 16.4557 47.661C16.1813 47.3122 16.0133 46.8907 15.972 46.4482C15.6736 44.8528 15.1067 43.3205 14.2955 41.9171C13.7554 40.2691 13.2711 38.6029 12.8054 36.9175C12.5112 35.7417 12.4668 34.5166 12.675 33.3226C12.6991 32.7626 12.8893 32.2223 13.2213 31.772C13.5533 31.3212 14.0117 30.9811 14.5377 30.7946C14.9239 30.6808 15.2534 30.4248 15.4604 30.0778C15.6675 29.7313 15.7371 29.3186 15.6553 28.9222C15.6169 27.1559 15.3921 25.3986 14.9847 23.6798C14.7397 21.6602 14.7084 19.6205 14.8916 17.5945C14.944 17.4743 15.0201 17.3659 15.1151 17.2759L15.3014 17.1447C15.1792 15.9863 15.3449 14.8151 15.7838 13.7367C16.2227 12.6584 16.9209 11.7062 17.816 10.9661C18.7688 10.1007 19.5797 9.08954 20.2189 7.97003C20.5554 7.33004 21.0573 6.79337 21.6718 6.41578V6.2663C24.1648 4.02087 27.1586 2.4113 30.4006 1.57384C33.6426 0.736372 37.0375 0.69523 40.2986 1.45407C43.6806 2.00217 46.9713 3.01655 50.0777 4.46885C53.658 6.28915 56.6444 9.10234 58.6832 12.5761C59.6067 14.443 60.1272 16.4846 60.2106 18.5677C60.2773 19.1839 60.382 19.7997 60.4362 20.4154C60.4578 20.6609 60.4714 20.9064 60.4714 21.1519C60.4608 21.3014 60.4608 21.4518 60.4714 21.6012C60.3038 24.4474 60.1361 27.3122 59.9498 30.1583C59.9126 30.8883 60.0616 31.3377 60.8625 31.5626C61.2654 31.6755 61.6187 31.9219 61.8654 32.2616C62.112 32.6012 62.2378 33.0145 62.2223 33.435V35.3074C62.2744 35.3358 62.3312 35.355 62.3899 35.3637C62.4795 35.4505 62.5439 35.5607 62.5762 35.6818V36.5993C62.3309 38.0694 61.9633 39.5163 61.4772 40.9247C60.5896 42.9233 59.8609 44.989 59.2979 47.1033C59.2288 47.4251 59.0564 47.7145 58.8073 47.9279C58.5582 48.141 58.2462 48.2658 57.9195 48.2831C56.8391 48.3206 56.4666 48.9944 56.2431 49.8186C55.2868 53.4332 53.9959 56.9499 52.3874 60.3226C51.1634 61.2497 51.201 62.5306 51.2383 63.806C51.2447 64.0249 51.2512 64.2439 51.2512 64.4606C51.2713 64.8245 51.3239 65.09 51.3887 65.4169C51.4438 65.6953 51.5077 66.0176 51.5678 66.4829C51.6982 67.4941 52.1825 67.6815 53.0579 67.4941C53.4839 67.3314 53.9544 67.3314 54.3804 67.4941C54.8647 67.6253 54.9579 67.9997 55.051 68.4303C55.1442 69.2079 55.2936 69.9777 55.498 70.7333C55.5554 70.9432 55.6143 71.1516 55.6729 71.3592C55.8237 71.8931 55.9734 72.4224 56.0941 72.9614C56.138 73.2137 56.2423 73.451 56.3981 73.653C56.4852 73.766 56.5867 73.8665 56.6999 73.9511C56.7893 74.0183 56.8859 74.0759 56.9882 74.1225C57.2485 74.3319 57.527 74.5047 57.8047 74.6793C57.9244 74.7543 58.0438 74.8297 58.1617 74.9088C58.7957 75.7275 59.6899 76.3021 60.6949 76.538C60.8579 76.5787 61.0066 76.6665 61.152 76.7519C61.3389 76.8621 61.5203 76.9686 61.7194 76.9686C62.2066 77.4838 62.8754 77.786 63.5821 77.8111C65.6017 78.8858 67.7077 79.7878 69.878 80.5073C70.2582 80.8456 70.6994 81.0993 71.1724 81.2574C66.719 85.3593 61.5655 88.6721 55.9262 91.0195C46.4155 94.9787 35.9503 96.0137 25.8544 93.9931C16.4931 92.1203 7.83924 87.6984 0.827591 81.2309Z" fill="white"/>
</svg>
