<svg width="18" height="18" viewBox="0 0 18 18" fill="none" xmlns="http://www.w3.org/2000/svg">
<path d="M14.0259 12.8476L17.0054 15.8264C17.3311 16.152 17.3311 16.6799 17.0055 17.0055C16.6799 17.3311 16.152 17.3311 15.8264 17.0054L12.8476 14.0259C11.5199 15.0903 9.86842 15.6692 8.16675 15.6667C4.02675 15.6667 0.666748 12.3067 0.666748 8.16675C0.666748 4.02675 4.02675 0.666748 8.16675 0.666748C12.3067 0.666748 15.6667 4.02675 15.6667 8.16675C15.6692 9.86842 15.0903 11.5199 14.0259 12.8476ZM12.3542 12.2292C13.4118 11.1417 14.0025 9.68377 14.0001 8.16675C14.0001 4.94341 11.3892 2.33341 8.16675 2.33341C4.94341 2.33341 2.33341 4.94341 2.33341 8.16675C2.33341 11.3892 4.94341 14.0001 8.16675 14.0001C9.68377 14.0025 11.1417 13.4118 12.2292 12.3542L12.3542 12.2292Z" fill="#2C3E50"/>
</svg>
